<?xml version="1.0" encoding="UTF-8"?>
<svg width="38px" height="38px" viewBox="0 0 38 38" version="1.1" xmlns="http://www.w3.org/2000/svg" xmlns:xlink="http://www.w3.org/1999/xlink">
    <title>chart</title>
    <g id="âš™ï¸-Layout" stroke="none" stroke-width="1" fill="none" fill-rule="evenodd">
        <g id="Notifications" transform="translate(-902.000000, -451.000000)" fill-rule="nonzero">
            <g id="Notification" transform="translate(882.000000, 60.000000)">
                <g id="List" transform="translate(0.000000, 387.000000)">
                    <g id="chart" transform="translate(20.000000, 4.000000)">
                        <circle id="Oval" fill-opacity="0.12" fill="#FFB400" cx="19" cy="19" r="19"></circle>
                        <g id="graph-bar" transform="translate(9.000000, 9.000000)">
                            <path d="M4.16666665,21 L0.833333352,21 C0.612301994,21 0.400306997,20.8947343 0.244014219,20.7071829 C0.0877214417,20.5196316 -5.74623553e-05,20.2652376 0,20 L0,12 C-5.74623553e-05,11.7347624 0.0877214417,11.4803684 0.244014219,11.2928171 C0.400306997,11.1052657 0.612301994,11 0.833333352,11 L4.16666665,11 C4.38769801,11 4.599693,11.1052657 4.75598578,11.2928171 C4.91227856,11.4803684 5.00005746,11.7347624 5,12 L5,20 C5.00005746,20.2652376 4.91227856,20.5196316 4.75598578,20.7071829 C4.599693,20.8947343 4.38769801,21 4.16666665,21 Z" id="Path" fill="#FFD87A"></path>
                            <path d="M12.1666666,21 L8.83333335,21 C8.61230199,21 8.400307,20.8995191 8.24401422,20.7204928 C8.08772144,20.5414665 7.99994254,20.2986359 8,20.0454545 L8,0.954545484 C7.99994254,0.701364108 8.08772144,0.458533473 8.24401422,0.279507199 C8.400307,0.100480925 8.61230199,0 8.83333335,0 L12.1666666,0 C12.387698,0 12.599693,0.100480925 12.7559858,0.279507199 C12.9122786,0.458533473 13.0000575,0.701364108 13,0.954545484 L13,20.0454545 C13.0000575,20.2986359 12.9122786,20.5414665 12.7559858,20.7204928 C12.599693,20.8995191 12.387698,21 12.1666666,21 L12.1666666,21 Z" id="Path" fill="#FFB400"></path>
                            <path d="M19.1666666,21 L15.8333334,21 C15.612302,21 15.400307,20.9022533 15.2440142,20.7280984 C15.0877214,20.5539436 14.9999425,20.3177206 15,20.0714285 L15,8.92857146 C14.9999425,8.68227937 15.0877214,8.44605637 15.2440142,8.27190156 C15.400307,8.09774675 15.612302,8 15.8333334,8 L19.1666666,8 C19.387698,8 19.599693,8.09774675 19.7559858,8.27190156 C19.9122786,8.44605637 20.0000575,8.68227937 20,8.92857146 L20,20.0714285 C20.0000575,20.3177206 19.9122786,20.5539436 19.7559858,20.7280984 C19.599693,20.9022533 19.387698,21 19.1666666,21 Z" id="Path" fill="#FFCF5C"></path>
                        </g>
                    </g>
                </g>
            </g>
        </g>
    </g>
</svg>